<?xml version="1.0" encoding="UTF-8"?>
<svg width="1024px" height="1024px" viewBox="0 0 1024 1024" version="1.1" xmlns="http://www.w3.org/2000/svg" xmlns:xlink="http://www.w3.org/1999/xlink">
    <!-- Generator: Sketch 52.4 (67378) - http://www.bohemiancoding.com/sketch -->
    <title>icon</title>
    <desc>Created with Sketch.</desc>
    <g id="Icon" stroke="none" stroke-width="1" fill="none" fill-rule="evenodd">
        <path d="M979.843729,506.348582 L913,526.5 L979.98398,546.6937 C978.178227,609.664153 966.805315,666.25243 945.864982,716.459974 C922.948456,771.405736 890.865799,817.881716 849.616051,855.889311 C808.366303,893.896905 758.992346,922.195614 701.492697,940.786285 C663.536716,953.058136 623.039332,961.279553 580,965.450616 L580,921.082685 C603.742908,917.163614 626.532273,911.13121 648.368287,902.985442 C690.451363,887.286653 727.117256,863.119143 758.367065,830.482187 C789.616874,797.845231 813.99136,756.533248 831.491253,706.544999 C848.991146,656.55675 857.740961,597.274054 857.740961,528.695134 C857.740961,460.116214 848.991146,400.833518 831.491253,350.845269 C813.99136,300.85702 789.616874,259.545037 758.367065,226.908081 C727.117256,194.271124 690.451363,170.103614 648.368287,154.404825 C626.532273,146.259057 603.742908,140.226654 580,136.307582 L580,88.4363056 C623.039332,92.8854388 663.536716,101.65495 701.492697,114.744925 C758.992346,134.574974 808.366303,163.493363 849.616051,201.500957 C890.865799,239.508551 922.948456,285.984532 945.864982,340.930294 C966.322224,389.979555 977.648391,445.11854 979.843729,506.348582 Z M44.2535706,546.622085 L111,526.5 L44.3933135,506.420043 C46.5824013,445.161427 57.9094209,389.99863 78.3746182,340.930294 C101.291145,285.984532 133.373801,239.508551 174.623549,201.500957 C215.873297,163.493363 265.247255,134.574974 322.746904,114.744925 C361.089574,101.521592 401.840419,92.7072025 445,88.3016697 L445,136.126424 C421.089456,140.039695 398.046627,146.132484 375.871314,154.404825 C333.788237,170.103614 297.122345,194.271124 265.872535,226.908081 C234.622726,259.545037 210.248241,300.85702 192.748348,350.845269 C175.248455,400.833518 166.498639,460.116214 166.498639,528.695134 C166.498639,597.274054 175.248455,656.55675 192.748348,706.544999 C210.248241,756.533248 234.622726,797.845231 265.872535,830.482187 C297.122345,863.119143 333.788237,887.286653 375.871314,902.985442 C398.046627,911.257783 421.089456,917.350573 445,921.263844 L445,965.576837 C401.840419,961.44665 361.089574,953.18316 322.746904,940.786285 C265.247255,922.195614 215.873297,893.896905 174.623549,855.889311 C133.373801,817.881716 101.291145,771.405736 78.3746182,716.459974 C57.426346,666.233394 46.052751,609.621242 44.2535706,546.622085 Z" id="Combined-Shape" fill="#989898"></path>
        <path d="M575.200665,804 L373.310528,804 L373.039454,220 L549.43374,220 C617.15295,286.585669 651.012554,388.757921 651.012554,526.516754 C651.012554,645.605472 625.741925,738.099887 575.200665,804 Z" id="Combined-Shape" stroke="#000000" stroke-width="4" fill="#000000" stroke-linecap="square"></path>
        <path d="M804,387.556672 L804,577.682401 C737.442379,636.242821 640.111138,665.523031 512.006277,665.523031 C383.893362,665.523031 286.557936,636.277423 220,577.786207 L220,387.827746 L804,387.556672 Z" id="Combined-Shape" stroke="#000000" stroke-width="4" fill="#000000" stroke-linecap="square"></path>
        <path d="M498,455.713682 L498,463.820527 C495.342876,464.41856 492.754317,465.189533 490.234312,466.133447 C483.357108,468.70943 477.365179,472.675028 472.258344,478.030361 C467.15151,483.385694 463.168239,490.164495 460.308411,498.366967 C457.448584,506.569439 456.018692,516.297018 456.018692,527.549997 C456.018692,538.802975 457.448584,548.530554 460.308411,556.733026 C463.168239,564.935498 467.15151,571.714299 472.258344,577.069632 C477.365179,582.424965 483.357108,586.390563 490.234312,588.966546 C492.754317,589.91046 495.342876,590.681433 498,591.279467 L498,598.836759 C492.245435,598.083195 486.763031,596.860682 481.552737,595.169211 C472.156161,592.118705 464.087484,587.475226 457.346462,581.238636 C450.60544,575.002046 445.362502,567.375895 441.61749,558.359955 C437.872478,549.344014 436,539.074131 436,527.549997 C436,516.025862 437.872478,505.755979 441.61749,496.740039 C445.362502,487.724098 450.60544,480.097947 457.346462,473.861357 C464.087484,467.624767 472.156161,462.879606 481.552737,459.625733 C486.763031,457.821497 492.245435,456.517483 498,455.713682 Z M520,455 C528.383015,455.573784 536.198722,457.115687 543.447263,459.625733 C552.843839,462.879606 560.912516,467.624767 567.653538,473.861357 C574.39456,480.097947 579.637498,487.724098 583.38251,496.740039 C587.127522,505.755979 589,516.025862 589,527.549997 C589,539.074131 587.127522,549.344014 583.38251,558.359955 C579.637498,567.375895 574.39456,575.002046 567.653538,581.238636 C560.912516,587.475226 552.843839,592.118705 543.447263,595.169211 C536.198722,597.522379 528.383015,598.967914 520,599.505836 L520,592.427638 C525.187241,591.864445 530.109113,590.710752 534.765688,588.966546 C541.642892,586.390563 547.634821,582.424965 552.741656,577.069632 C557.84849,571.714299 561.831761,564.935498 564.691589,556.733026 C567.551416,548.530554 568.981308,538.802975 568.981308,527.549997 C568.981308,516.297018 567.551416,506.569439 564.691589,498.366967 C561.831761,490.164495 557.84849,483.385694 552.741656,478.030361 C547.634821,472.675028 541.642892,468.70943 534.765688,466.133447 C530.109113,464.389241 525.187241,463.235548 520,462.672355 L520,455 Z" id="Combined-Shape" fill="#FFFFFF"></path>
        <ellipse id="Oval" stroke="#979797" fill="#D8D8D8" transform="translate(531.522215, 272.685488) rotate(-11.000000) translate(-531.522215, -272.685488) " cx="531.522215" cy="272.685488" rx="16" ry="20"></ellipse>
        <ellipse id="Oval" stroke="#979797" fill="#D8D8D8" transform="translate(435.522215, 272.685488) rotate(-11.000000) translate(-435.522215, -272.685488) " cx="435.522215" cy="272.685488" rx="16" ry="20"></ellipse>
        <circle id="Oval" fill="#12FF00" cx="513" cy="527" r="25"></circle>
    </g>
</svg>