<?xml version="1.0" encoding="UTF-8"?>
<svg width="16px" height="16px" viewBox="0 0 16 16" version="1.1" xmlns="http://www.w3.org/2000/svg" xmlns:xlink="http://www.w3.org/1999/xlink">
    <!-- Generator: Sketch 52.4 (67378) - http://www.bohemiancoding.com/sketch -->
    <title>baseline-pages-24px (1)</title>
    <desc>Created with Sketch.</desc>
    <g id="Symbols" stroke="none" stroke-width="1" fill="none" fill-rule="evenodd">
        <g id="Tile" transform="translate(-17.000000, -270.000000)">
            <g id="baseline-pages-24px-(1)" transform="translate(15.000000, 268.000000)">
                <path d="M2.5,4.16666667 L2.5,9.16666667 L6.66666667,9.16666667 L5.83333333,5.83333333 L9.16666667,6.66666667 L9.16666667,2.5 L4.16666667,2.5 C3.25,2.5 2.5,3.25 2.5,4.16666667 Z M6.66666667,10.8333333 L2.5,10.8333333 L2.5,15.8333333 C2.5,16.75 3.25,17.5 4.16666667,17.5 L9.16666667,17.5 L9.16666667,13.3333333 L5.83333333,14.1666667 L6.66666667,10.8333333 Z M14.1666667,14.1666667 L10.8333333,13.3333333 L10.8333333,17.5 L15.8333333,17.5 C16.75,17.5 17.5,16.75 17.5,15.8333333 L17.5,10.8333333 L13.3333333,10.8333333 L14.1666667,14.1666667 Z M15.8333333,2.5 L10.8333333,2.5 L10.8333333,6.66666667 L14.1666667,5.83333333 L13.3333333,9.16666667 L17.5,9.16666667 L17.5,4.16666667 C17.5,3.25 16.75,2.5 15.8333333,2.5 Z" id="Shape" fill="#FFFFFF" fill-rule="nonzero"></path>
            </g>
        </g>
    </g>
</svg>