<?xml version="1.0" encoding="UTF-8"?>
<svg width="34px" height="34px" viewBox="0 0 34 34" version="1.1" xmlns="http://www.w3.org/2000/svg" xmlns:xlink="http://www.w3.org/1999/xlink">
    <!-- Generator: Sketch 52.4 (67378) - http://www.bohemiancoding.com/sketch -->
    <title>Shape</title>
    <desc>Created with Sketch.</desc>
    <g id="Symbols" stroke="none" stroke-width="1" fill="none" fill-rule="evenodd">
        <g id="Tile" transform="translate(-216.000000, -1.000000)" fill="#FFFFFF" fill-rule="nonzero">
            <g id="sharp-settings-24px" transform="translate(209.000000, 1.000000)">
                <path fill="#FFFFFF" d="M36.7865453,18.683 L36.7693475,18.717 C36.8381386,18.156 36.9069297,17.578 36.9069297,17 C36.9069297,16.422 36.8553364,15.878 36.7865453,15.317 L36.803743,15.351 L41,12.087 L36.8209408,4.913 L31.8851796,6.885 L31.9023773,6.902 C31.0080931,6.222 30.0278199,5.644 28.9615579,5.202 L28.9787557,5.202 L28.1876581,0 L19.8123419,0 L19.0556399,5.219 L19.0728376,5.219 C18.0065756,5.661 17.0263025,6.239 16.1320182,6.919 L16.149216,6.902 L11.196257,4.913 L7,12.087 L11.196257,15.351 L11.2134547,15.317 C11.1446636,15.878 11.0930703,16.422 11.0930703,17 C11.0930703,17.578 11.1446636,18.156 11.2306525,18.717 L11.2134547,18.683 L7.6019221,21.488 L7.03439555,21.93 L11.2134547,29.07 L16.1664138,27.115 L16.1320182,27.047 C17.0435003,27.744 18.0237734,28.322 19.1072332,28.764 L19.0556399,28.764 L19.8295397,34 L28.1704603,34 C28.1704603,34 28.2220536,33.694 28.2736469,33.286 L28.9271624,28.781 L28.9099646,28.781 C29.9762266,28.339 30.9736975,27.761 31.8851796,27.064 L31.850784,27.132 L36.803743,29.087 L40.9828022,21.947 C40.9828022,21.947 40.7420334,21.743 40.4152757,21.505 L36.7865453,18.683 Z M23.9914011,22.95 C20.6722307,22.95 17.9721801,20.281 17.9721801,17 C17.9721801,13.719 20.6722307,11.05 23.9914011,11.05 C27.3105716,11.05 30.0106222,13.719 30.0106222,17 C30.0106222,20.281 27.3105716,22.95 23.9914011,22.95 Z" id="Shape"></path>
            </g>
        </g>
    </g>
</svg>